PathFileType	4	(X/Y/Z)	17_2_78_p1_0-164_filt_butterworth.trc
DataRate	CameraRate	NumFrames	NumMarkers	Units	OrigDataRate	OrigDataStartFrame	OrigNumFrames
60.0	60.0	5	27	m	60.0	102	164
Frame#	Time	RHip			RKnee			RAnkle			RBigToe			RSmallToe			RHeel			LHip			LKnee			LAnkle			LBigToe			LSmallToe			LHeel			Neck			Head			Nose			RShoulder			RElbow			RWrist			RThumb			RIndex			RPinky			LShoulder			LElbow			LWrist			LThumb			LIndex			LPinky			
		X1	Y1	Z1	X2	Y2	Z2	X3	Y3	Z3	X4	Y4	Z4	X5	Y5	Z5	X6	Y6	Z6	X7	Y7	Z7	X8	Y8	Z8	X9	Y9	Z9	X10	Y10	Z10	X11	Y11	Z11	X12	Y12	Z12	X13	Y13	Z13	X14	Y14	Z14	X15	Y15	Z15	X16	Y16	Z16	X17	Y17	Z17	X18	Y18	Z18	X19	Y19	Z19	X20	Y20	Z20	X21	Y21	Z21	X22	Y22	Z22	X23	Y23	Z23	X24	Y24	Z24	X25	Y25	Z25	X26	Y26	Z26	X27	Y27	Z27	
102	1.7	0.28464017106187955	0.512043272595092	0.8425068638196218	0.2557071249147465	0.6084540365926459	1.273012567028257	0.24382374321581332	0.7078518566526997	1.6872911338102847	0.22956387939205217	0.4949457827243091	1.7156719059021708	0.28528848187390377	0.5590778645180298	1.7317598195662685	0.20704744597117	0.8133388863321873	1.7600077514962362	0.07730922952015135	0.5092220256913944	0.8558234176027864	0.04647105749043197	0.5971190290726417	1.2619324370909657	0.047482454283401455	0.6734131409242592	1.6835676688851642	0.08253590467340072	0.49559219111045316	1.7200996302674654	0.018008139491822662	0.5457449780148874	1.7317149563380907	0.06587133058501403	0.7908738819286263	1.7680393678048052	0.17683589354986257	0.4500701058450196	0.20669108961056637	0.17842493853911956	0.38849786348839277	-0.0391844741794996	0.1766868612942524	0.3410004830032138	0.10363895412476172	0.33536230802460093	0.540235665620459	0.3234454872671489	0.37227084461920285	0.5355411683313621	0.5838509783912922	0.4064407796303807	0.48969618513851687	0.848919387908263	0.3369749373380625	0.4689721666919923	0.9688352314492721	0.36179643271526285	0.4640525033784263	0.9992632321049822	0.383458046907404	0.5251384778141283	0.9984728596072857	0.008058331119109233	0.49871745173279847	0.31010106727033193	0.002486441858399384	0.4753529045128553	0.5903982489074674	-0.02422277165474999	0.4297888713695583	0.8509437365703603	0.03772449360639075	0.36130570645281773	0.9367470835403866	0.010375953027377822	0.3828439589800518	0.9803216661106012	-0.022502064730332633	0.42813858790576154	0.9727670127915501
103	1.7166666666666666	0.2845690876615645	0.5118800567442031	0.8424099482006107	0.2566796462705971	0.6132156091391154	1.2734330195551555	0.24379019909704974	0.7078562644198866	1.6872951570335153	0.22962559299415752	0.494984173634336	1.7156476149222595	0.28533624713175143	0.5591098461849827	1.731749034813773	0.206778133632636	0.8135905403386884	1.761373215910323	0.0774171132196797	0.5092568699413077	0.8549703609165828	0.04757147647866582	0.5976055558633514	1.2619101693490364	0.047111501119223666	0.6734015236271998	1.6834676712516643	0.08247061280586479	0.49575106004693464	1.7183570105131731	0.019632221550611135	0.5463059037501783	1.7318458726630674	0.06587130088956734	0.7908544099853835	1.7680498008576908	0.176817644380904	0.4500090021078623	0.20669189136413071	0.1784248661385835	0.3885173350777663	-0.0391829644304644	0.17667960278655856	0.34078624489281795	0.1036473449397936	0.33536842011043294	0.5402161410590351	0.32346098442384513	0.3720840145093474	0.5356991042467316	0.5833258021115308	0.4067788423009406	0.49099571503825507	0.8491344108038138	0.3381632013683097	0.4685772414999648	0.9688724437687392	0.36401545150774134	0.464237888091049	0.9991834501702777	0.3852195951739375	0.5245907313266162	0.9985170383815276	0.008044675334600841	0.4987288985429994	0.31009829533437366	0.002492732864678936	0.47529241179169035	0.5903800810014781	-0.024218652463289612	0.4297464376928819	0.8509481087725576	0.03771049291286507	0.3613830282268916	0.936822566689055	0.00969834023640683	0.384190443124719	0.9803522597873826	-0.022769460059860417	0.42766443431228196	0.9715624028289374
104	1.7333333333333334	0.28448957316826196	0.5116069665577163	0.8423087273913795	0.2573107534973208	0.6171655401007282	1.2743066508003587	0.24377319924480784	0.7078900931865434	1.6873114648446523	0.22966115700834616	0.49494582860447844	1.7155968830841415	0.2853999715275828	0.5591223343370426	1.7317267298078936	0.20644490528925524	0.8140621703967446	1.7632140337438413	0.07748865804662936	0.5092846172178747	0.854676197242386	0.048998523596373265	0.598247760351414	1.2618568167599329	0.04693421751889778	0.6733476029567663	1.683504971924738	0.08246996328005775	0.49580959408714864	1.7175393300633475	0.020863072946098703	0.5470258314167319	1.7320068811940683	0.06586093813851542	0.790826669248176	1.7680597666235476	0.17682132743557127	0.44996521703527503	0.20660198464395285	0.1784408638954898	0.3885348968165294	-0.03917872395750432	0.17666996438990298	0.3404720581419186	0.10365997958908704	0.33537684375598364	0.5401808064234167	0.32346807394540567	0.37185266052493793	0.5361682487355275	0.5824090696227677	0.4076072993484363	0.4941530277906814	0.8498580498204378	0.3408508321009408	0.4677314186366416	0.9689157274423781	0.36670157733156045	0.4644395721753797	0.9988188345739379	0.3876881237962511	0.5259017992732933	0.998300757064333	0.008043213877442975	0.4987412740002294	0.31009418331827854	0.0023748519738868872	0.4739634690612214	0.590230817434219	-0.02421673678913719	0.42971737708765495	0.8509498471109023	0.03764482742972526	0.36136164685335326	0.9368729413953563	0.008006502842034566	0.3872462498061975	0.9803221390471448	-0.023185757777063203	0.4273308194766614	0.9707346447485747
105	1.75	0.284475372606326	0.5116747752876003	0.8422883629427008	0.2573174817019429	0.6188649184320286	1.2749860883508388	0.24377210587757028	0.7079447893318611	1.6873372708562988	0.22967632430315854	0.49488764025320575	1.7155593279597836	0.28545557689713796	0.5591163010594407	1.731701989530616	0.20613863115899755	0.8142075399116517	1.7645106182103716	0.07752538812158308	0.509259504075975	0.8545890565927687	0.050052078796170775	0.5987490160023524	1.2618817824737374	0.04692243042118911	0.6733109152683057	1.6834456101831032	0.08246943135401431	0.49587312392941696	1.7175738753934604	0.021372605343874265	0.5475160152376176	1.732077558212756	0.06583912310950164	0.7907945918976644	1.768037677586181	0.17682867053025209	0.4499484264164643	0.20653880425338964	0.17846066420067883	0.3885602255813956	-0.03919075193246066	0.1767054477891371	0.34047372133754933	0.10365575463820764	0.33538715560918614	0.5401499276658716	0.32346722534940675	0.37176890502285886	0.5362524687572826	0.5815677140921447	0.4087251804268011	0.4982573990198127	0.8510642581283285	0.3440897439976015	0.46736075480469597	0.9689342362547012	0.36893082459356125	0.46468619929760346	0.9985055093666473	0.3901821293892438	0.5308840571777953	0.9987919525596406	0.008052327578801078	0.4987417001798	0.3100987839509308	0.0020625409589439796	0.47062850895472363	0.5898737997094569	-0.024223265858056786	0.4297104113046008	0.8509477501115518	0.03755901532740748	0.36104302686120304	0.9366658077254296	0.00575290085170661	0.390937415647506	0.9801754162850805	-0.023619231028690877	0.42702459035455465	0.9702664725866305
106	1.7666666666666666	0.28468534940813756	0.5130401949663658	0.8425235737677372	0.2567411278158383	0.6178063754991345	1.2744459070217213	0.24376857561798787	0.7079548634728263	1.687339635888128	0.22967352773963798	0.4948272389354283	1.7155408174106446	0.28547559345208073	0.5591009058312562	1.7316854159181991	0.2057702791426291	0.8127239494559266	1.7643757255101136	0.07746036178326868	0.5091346875432339	0.8541768204985687	0.05036209275915833	0.5989895989789695	1.2622829696997127	0.047306094540355476	0.6734366331349827	1.6829202765642657	0.08245129883862644	0.49586543202752986	1.718144299890246	0.02142711483449441	0.5476143650980718	1.7320234275388693	0.0658172034225648	0.790769836311088	1.7679687309060639	0.17683329666943476	0.4499521662451831	0.2065155492698089	0.17846532100722914	0.3886092664661798	-0.039241642135821465	0.17691265878518422	0.34171013178360543	0.10358881663670905	0.33539500087486596	0.5401356839893828	0.32346003266900636	0.37230915184004243	0.5347754334305153	0.5813677404882222	0.4096131132640311	0.5013382138727648	0.8521866564309353	0.3462590180388972	0.4690804236595299	0.9690553500363304	0.36989821264815526	0.4649580554370639	0.9986477496151432	0.39216932931862813	0.5373640797011009	1.000350524073236	0.008069625558061353	0.49873361569854996	0.3101142209357285	0.001644288082415732	0.4662175084345005	0.5894103270796558	-0.024240546804416487	0.42973865266060574	0.8509314601376413	0.03747475926927072	0.360329869582365	0.9358485675079387	0.003913436585042439	0.39320980991150556	0.9799155141938173	-0.0238669537876999	0.4264996546097116	0.9694943553761501
